<svg width="213" height="34" viewBox="0 0 213 34" fill="none" xmlns="http://www.w3.org/2000/svg">
<path d="M0 0.6L26.6 0.3L53.1 0.1L106.2 0L159.4 0.1L185.9 0.3L212.5 0.6L185.9 0.8L159.4 1L106.2 1.1L53.1 1L26.6 0.8L0 0.6Z" fill="url(#paint0_linear_364_1779)"/>
<path d="M76.1996 4.60002C76.1996 4.60002 75.8996 4.60002 75.3996 4.70002C74.8996 4.80002 74.0996 4.90002 73.1996 5.10002C71.2996 5.40002 68.7996 6.00002 65.9996 6.50002C65.2996 6.60002 64.5996 6.70002 63.8996 6.80002C63.1996 7.00002 62.5996 7.00002 61.8996 7.10002C60.6996 7.20002 59.4996 7.20002 58.5996 7.10002C58.1996 7.00002 57.7996 7.00002 57.3996 7.00002C56.9996 7.00002 56.6996 6.90002 56.3996 6.90002C55.8996 6.80002 55.5996 6.80002 55.5996 6.80002C55.5996 6.80002 55.8996 6.90002 56.3996 7.10002C56.6996 7.20002 56.9996 7.30002 57.2996 7.30002C57.6996 7.40002 58.0996 7.50002 58.5996 7.50002C59.4996 7.70002 60.6996 7.80002 61.9996 7.80002C62.5996 7.80002 63.2996 7.80002 63.9996 7.70002C64.6996 7.60002 65.3996 7.50002 66.0996 7.40002C68.9996 6.90002 71.4996 6.10002 73.2996 5.50002C74.8996 5.00002 76.1996 4.60002 76.1996 4.60002Z" fill="url(#paint1_linear_364_1779)"/>
<path d="M101.1 15.4C100.9 16 100.6 16.5 100.3 17C99.9998 17.5 99.5998 17.8 99.2998 18.2C98.8998 18.5 98.4998 18.8 98.0998 19C97.9998 19.1 97.8998 19.1 97.7998 19.2C97.6998 19.2 97.6998 19.3 97.5998 19.3L97.3998 19.4C97.2998 19.5 97.1998 19.5 97.0998 19.5H96.9998L96.7998 19.6C96.2998 19.8 95.8998 19.9 95.3998 19.9C94.9998 20 94.4998 20 94.0998 20C93.1998 20 92.2998 19.8 91.4998 19.6C91.0998 19.5 90.6998 19.3 90.2998 19.2C90.0998 19.1 89.8998 19 89.6998 18.9C89.5998 18.9 89.4998 18.8 89.3998 18.8C89.2998 18.8 89.1998 18.7 89.0998 18.7C88.9998 18.6 88.8998 18.6 88.7998 18.5C88.6998 18.4 88.5998 18.4 88.4998 18.3L88.3998 18.2L88.2998 18.1C88.1998 18 88.0998 18 88.0998 17.9C87.9998 17.8 87.8998 17.8 87.8998 17.7L87.7998 17.6L87.6998 17.5C87.5998 17.4 87.5998 17.4 87.4998 17.3C87.3998 17.2 87.3998 17.2 87.2998 17.1C87.1998 17 87.1998 17 87.0998 16.9C86.9998 16.8 86.9998 16.8 86.8998 16.7C86.7998 16.5 86.6998 16.4 86.5998 16.2C86.3998 15.9 86.1998 15.5 85.9998 15.2C85.9998 15.1 85.8998 15 85.8998 14.9L85.7998 14.8V14.7C85.7998 14.6 85.6998 14.5 85.6998 14.4C85.6998 14.3 85.6998 14.2 85.5998 14.1V14V13.9C85.5998 13.8 85.5998 13.7 85.5998 13.6C85.5998 13.5 85.5998 13.4 85.5998 13.3V13.2V13.1C85.5998 13 85.5998 12.9 85.5998 12.8C85.5998 12.7 85.5998 12.6 85.5998 12.5V12.4V12.3C85.5998 12.2 85.5998 12.1 85.5998 12C85.5998 11.9 85.5998 11.8 85.6998 11.8V11.7V11.6C85.6998 11.5 85.7998 11.4 85.7998 11.4C85.7998 11.3 85.8998 11.3 85.8998 11.2V11.1L85.9998 11C85.9998 10.9 86.0998 10.9 86.0998 10.8C86.0998 10.7 86.1998 10.7 86.1998 10.6L86.2998 10.5C86.2998 10.5 86.2998 10.4 86.3998 10.4C86.3998 10.3 86.4998 10.3 86.4998 10.2C86.4998 10.1 86.5998 10.1 86.5998 10C86.6998 9.90002 86.7998 9.80002 86.8998 9.70002C87.2998 9.30002 87.7998 9.00002 88.2998 8.80002C88.7998 8.60003 89.1998 8.50002 89.6998 8.50002C90.0998 8.50002 90.4998 8.50002 90.7998 8.60003H90.8998H90.9998C91.0998 8.60003 91.0998 8.70002 91.1998 8.70002C91.4998 9.00002 91.5998 9.00002 91.6998 9.10003C91.8998 9.10003 91.9998 9.20002 91.9998 9.30002C91.9998 9.30002 92.0998 9.30002 92.0998 9.40002C92.7998 9.60002 93.2998 10.3 93.1998 11.1C93.0998 12 92.2998 12.6 91.4998 12.5C90.5998 12.4 89.9998 11.6 90.0998 10.8C90.1998 10.1 90.6998 9.60002 91.2998 9.40002H91.1998C91.0998 9.40002 91.0998 9.40002 90.9998 9.40002H90.8998H90.7998C90.4998 9.30002 90.1998 9.30002 89.7998 9.40002C89.3998 9.40002 88.9998 9.50002 88.6998 9.70002C88.2998 9.90002 87.8998 10.1 87.5998 10.5C87.4998 10.6 87.3998 10.7 87.3998 10.8L87.2998 10.9C87.2998 11 87.1998 11 87.1998 11.1C87.1998 11.1 87.1998 11.2 87.0998 11.2V11.3C87.0998 11.4 86.9998 11.4 86.9998 11.5C86.9998 11.6 86.8998 11.6 86.8998 11.7V11.8V11.9C86.8998 12 86.8998 12 86.7998 12.1C86.7998 12.2 86.7998 12.2 86.6998 12.3V12.4V12.5C86.6998 12.6 86.6998 12.6 86.6998 12.7C86.6998 12.8 86.6998 12.8 86.6998 12.9V13V13.1C86.6998 13.2 86.6998 13.2 86.6998 13.3C86.6998 13.4 86.6998 13.4 86.6998 13.5V13.6V13.7C86.6998 13.8 86.6998 13.8 86.6998 13.9C86.6998 14 86.6998 14 86.6998 14.1V14.2V14.3C86.6998 14.4 86.6998 14.4 86.7998 14.5C86.7998 14.6 86.8998 14.6 86.8998 14.7V14.8V14.9C86.8998 15 86.9998 15 86.9998 15.1C87.4998 16.2 88.5998 17.2 89.7998 17.9C89.8998 17.9 89.9998 18 89.9998 18C90.0998 18 90.1998 18.1 90.1998 18.1C90.3998 18.2 90.4998 18.3 90.6998 18.3C90.9998 18.4 91.3998 18.6 91.7998 18.7C92.4998 18.9 93.2998 19 94.0998 19C94.4998 19 94.8998 19 95.2998 18.9C95.6998 18.8 96.0998 18.8 96.3998 18.6H96.4998L96.5998 18.5C96.6998 18.5 96.7998 18.4 96.8998 18.4L96.9998 18.3C96.9998 18.3 97.0998 18.3 97.0998 18.2C97.1998 18.2 97.2998 18.1 97.3998 18.1C97.6998 17.9 98.0998 17.7 98.3998 17.4C98.6998 17.1 98.9998 16.8 99.2998 16.4C99.5998 16 99.7998 15.6 99.9998 15.1C100.2 14.6 100.3 14.1 100.3 13.5C100.3 13.4 100.3 13.2 100.3 13.1C100.3 13 100.3 12.8 100.3 12.7C100.3 12.4 100.2 12.1 100.2 11.8C100.1 11.5 99.9998 11.2 99.8998 10.9C99.7998 10.6 99.6998 10.3 99.4998 10C99.3998 9.70002 99.1998 9.40003 98.9998 9.10003C98.8998 9.00002 98.7998 8.80002 98.6998 8.70002C98.5998 8.60002 98.5998 8.60003 98.4998 8.50002C98.3998 8.40002 98.3998 8.40002 98.2998 8.30002C98.1998 8.20002 98.1998 8.20002 98.0998 8.10002C98.0998 7.80002 97.9998 7.70002 97.9998 7.60002C97.8998 7.50002 97.6998 7.30002 97.5998 7.20002C97.4998 7.10002 97.4998 7.10002 97.3998 7.00002C97.2998 6.90002 97.2998 6.90002 97.1998 6.80002C97.0998 6.70002 97.0998 6.70002 96.9998 6.60002C96.8998 6.50002 96.8998 6.50002 96.7998 6.40002C96.5998 6.30002 96.4998 6.20002 96.2998 6.00002C96.0998 5.90002 95.9998 5.80002 95.7998 5.70002C95.5998 5.60002 95.4998 5.50002 95.2998 5.40002C95.1998 5.30002 95.0998 5.30002 94.9998 5.20002C94.8998 5.10002 94.7998 5.10002 94.6998 5.10002C94.5998 5.10002 94.4998 5.00002 94.3998 5.00002C94.2998 5.00002 94.1998 4.90002 94.0998 4.90002C93.8998 4.80002 93.6998 4.70002 93.5998 4.60002C93.3998 4.50002 93.1998 4.40002 92.9998 4.40002C92.8998 4.40002 92.7998 4.30002 92.6998 4.30002C92.5998 4.30002 92.4998 4.20002 92.3998 4.20002C91.5998 3.90002 90.7998 3.70002 89.9998 3.60002C89.7998 3.60002 89.5998 3.50002 89.3998 3.50002L89.0998 3.40002H88.7998C88.5998 3.40002 88.3998 3.30002 88.1998 3.30002C87.9998 3.30002 87.7998 3.20002 87.4998 3.20002C87.2998 3.20002 87.0998 3.10002 86.7998 3.10002C86.5998 3.10002 86.3998 3.10002 86.0998 3.00002C85.8998 3.00002 85.6998 3.00002 85.3998 2.90002H85.0998C84.9998 2.90002 84.8998 2.90002 84.7998 2.90002C84.5998 2.90002 84.3998 2.90002 84.0998 2.90002C83.8998 2.90002 83.6998 2.90002 83.3998 2.90002C82.9998 2.90002 82.4998 2.90002 82.0998 2.90002C81.8998 2.90002 81.6998 2.90002 81.3998 2.90002C81.1998 2.90002 80.9998 2.90002 80.6998 2.90002C80.3998 3.00002 79.9998 3.00002 79.4998 3.10002C78.5998 3.20002 77.6998 3.30002 76.7998 3.50002C75.8998 3.60002 74.9998 3.80002 74.1998 4.00002C73.2998 4.20002 72.4998 4.30002 71.5998 4.50002C70.6998 4.70002 69.8998 4.80002 69.0998 5.00002C67.3998 5.30002 65.7998 5.60002 64.1998 5.90002C63.4998 5.90002 62.6998 6.00002 61.9998 6.00002C61.1998 6.10002 60.4998 6.10002 59.7998 6.10002C58.3998 6.10002 56.9998 5.90002 55.7998 5.60002C55.1998 5.40002 54.6998 5.20002 54.1998 5.00002C53.6998 4.70002 53.2998 4.40002 52.8998 4.00002C52.6998 3.80002 52.5998 3.60002 52.4998 3.40002C52.3998 3.20002 52.3998 3.00002 52.2998 2.70002C52.2998 2.60002 52.2998 2.60002 52.2998 2.50002C52.2998 2.40002 52.2998 2.40002 52.2998 2.30002C52.2998 2.20002 52.2998 2.10002 52.2998 2.00002C52.2998 1.80002 52.3998 1.60002 52.4998 1.50002C52.5998 1.20002 52.7998 0.900024 53.0998 0.700024C53.2998 0.500024 53.4998 0.400024 53.6998 0.400024C53.8998 0.400024 53.9998 0.400024 54.0998 0.500024H54.1998C54.1998 0.500024 54.1998 0.500024 54.0998 0.500024C53.9998 0.500024 53.8998 0.400024 53.6998 0.500024C53.4998 0.500024 53.2998 0.600024 53.0998 0.800024C52.8998 1.00002 52.6998 1.20002 52.5998 1.50002C52.4998 1.70002 52.4998 1.80002 52.4998 2.00002C52.4998 2.10002 52.4998 2.20002 52.4998 2.30002V2.40002V2.50002C52.4998 2.70002 52.5998 2.90002 52.6998 3.10002C52.7998 3.30002 52.8998 3.50002 53.0998 3.70002C53.3998 4.00002 53.7998 4.30002 54.2998 4.60002C54.7998 4.80002 55.2998 5.00002 55.8998 5.20002C57.0998 5.50002 58.3998 5.60002 59.7998 5.60002C60.4998 5.60002 61.1998 5.50002 61.9998 5.50002C62.6998 5.40002 63.4998 5.30002 64.2998 5.20002C65.7998 4.90002 67.3998 4.60002 69.0998 4.20002C69.8998 4.00002 70.7998 3.90002 71.5998 3.70002C72.4998 3.50002 73.2998 3.30002 74.1998 3.20002C74.9998 3.00002 75.8998 2.80002 76.6998 2.70002C77.5998 2.50002 78.4998 2.40002 79.3998 2.30002C79.8998 2.20002 80.2998 2.20002 80.7998 2.10002C80.9998 2.10002 81.2998 2.10002 81.4998 2.00002C81.6998 2.00002 81.9998 2.00002 82.1998 1.90002C82.6998 1.90002 83.0998 1.80002 83.5998 1.80002C83.7998 1.80002 84.0998 1.80002 84.2998 1.80002C84.4998 1.80002 84.7998 1.80002 84.9998 1.80002C85.0998 1.80002 85.1998 1.80002 85.2998 1.80002H85.5998C85.7998 1.80002 86.0998 1.80002 86.2998 1.80002C86.4998 1.80002 86.6998 1.80002 86.9998 1.90002C87.1998 1.90002 87.3998 1.90002 87.6998 2.00002C87.8998 2.00002 88.0998 2.10002 88.3998 2.10002C88.5998 2.10002 88.7998 2.20002 89.0998 2.20002H89.3998L89.6998 2.30002C89.8998 2.30002 90.0998 2.40002 90.3998 2.40002C91.2998 2.60002 92.0998 2.80002 92.9998 3.00002C93.0998 3.00002 93.1998 3.10002 93.2998 3.10002C93.3998 3.10002 93.4998 3.20002 93.5998 3.20002C93.7998 3.30002 93.9998 3.40002 94.1998 3.40002C94.3998 3.50002 94.5998 3.60002 94.7998 3.70002C94.7998 3.90002 94.8998 4.00002 94.9998 4.00002C95.0998 4.10002 95.1998 4.10002 95.2998 4.20002C95.3998 4.30002 95.4998 4.30002 95.5998 4.40002C95.6998 4.50002 95.7998 4.50002 95.8998 4.60002C96.0998 4.70002 96.2998 4.80002 96.3998 4.90002C96.5998 5.00002 96.7998 5.10002 96.8998 5.30002C97.0998 5.40002 97.1998 5.60002 97.3998 5.70002C97.4998 5.80002 97.5998 5.80002 97.5998 5.90002C97.6998 6.00002 97.7998 6.00002 97.7998 6.10002C97.9998 6.10002 97.9998 6.10002 98.0998 6.20002C98.1998 6.30002 98.1998 6.30002 98.2998 6.40002C98.3998 6.50002 98.5998 6.70002 98.6998 6.80002C98.7998 6.90002 98.8998 7.00002 98.9998 7.00002C99.0998 7.10002 99.0998 7.10002 99.1998 7.20002C99.2998 7.30002 99.2998 7.40002 99.3998 7.40002C99.4998 7.50002 99.4998 7.60002 99.5998 7.60002C99.6998 7.80002 99.7998 7.90002 99.9998 8.10002C100.2 8.40002 100.4 8.80002 100.6 9.10003C100.8 9.40003 100.9 9.80002 101.1 10.1C101.2 10.5 101.3 10.8 101.4 11.2C101.6 12.8 101.5 14.2 101.1 15.4Z" fill="url(#paint2_linear_364_1779)"/>
<path d="M132.4 4.60002C132.4 4.60002 132.7 4.60002 133.2 4.70002C133.7 4.80002 134.5 4.90002 135.4 5.10002C137.3 5.40002 139.8 6.00002 142.6 6.50002C143.3 6.60002 144 6.70002 144.7 6.80002C145.4 6.90002 146 7.00002 146.6 7.00002C147.8 7.10002 149 7.10002 149.9 7.00002C150.4 7.00002 150.8 6.90002 151.2 6.90002C151.6 6.90002 151.9 6.80002 152.2 6.80002C152.7 6.70002 153 6.70002 153 6.70002C153 6.70002 152.7 6.80002 152.2 7.00002C151.9 7.10002 151.6 7.20002 151.3 7.20002C150.9 7.30002 150.5 7.40002 150 7.40002C149.1 7.60002 147.9 7.70002 146.6 7.70002C146 7.70002 145.3 7.70002 144.6 7.60002C143.9 7.50002 143.2 7.40002 142.5 7.30002C139.6 6.80002 137.1 6.00002 135.3 5.40002C133.6 5.00002 132.4 4.60002 132.4 4.60002Z" fill="url(#paint3_linear_364_1779)"/>
<path d="M107.4 15.4C107.6 16 107.9 16.5 108.2 17C108.5 17.5 108.9 17.8 109.2 18.2C109.6 18.5 110 18.8 110.4 19C110.5 19.1 110.6 19.1 110.7 19.2C110.8 19.2 110.8 19.3 110.9 19.3L111.1 19.4C111.2 19.5 111.3 19.5 111.4 19.5L111.6 19.6L111.8 19.7C112.3 19.9 112.7 20 113.2 20C113.7 20.1 114.1 20.1 114.6 20.1C115.5 20.1 116.4 19.9 117.2 19.7C117.6 19.6 118 19.4 118.4 19.3C118.6 19.2 118.8 19.1 119 19C119.1 19 119.2 18.9 119.3 18.9C119.4 18.9 119.5 18.8 119.6 18.8C119.7 18.7 119.8 18.7 119.9 18.6C120 18.5 120.1 18.5 120.2 18.4L120.3 18.3L120.4 18.2C120.5 18.1 120.6 18.1 120.6 18C120.7 17.9 120.8 17.9 120.8 17.8L120.9 17.7L121 17.6C121.1 17.5 121.1 17.5 121.2 17.4C121.3 17.3 121.3 17.3 121.4 17.2C121.5 17.1 121.5 17.1 121.6 17C121.7 16.9 121.7 16.9 121.8 16.8C121.9 16.6 122 16.5 122.1 16.3C122.3 16 122.5 15.6 122.7 15.3C122.7 15.2 122.8 15.1 122.8 15L122.9 14.9V14.8C122.9 14.7 123 14.6 123 14.5C123 14.4 123 14.3 123.1 14.2V14.1V14C123.1 13.9 123.1 13.8 123.1 13.7C123.1 13.6 123.1 13.5 123.1 13.4V13.3V13.2C123.1 13.1 123.1 13 123.1 12.9C123.1 12.8 123.1 12.7 123.1 12.6V12.5V12.4C123.1 12.3 123.1 12.2 123.1 12.1C123.1 12 123.1 11.9 123 11.9V11.8V11.7C123 11.6 122.9 11.5 122.9 11.5C122.9 11.4 122.8 11.4 122.8 11.3V11.2L122.7 11.1C122.7 11 122.6 11 122.6 10.9C122.6 10.8 122.5 10.8 122.5 10.7L122.4 10.6C122.4 10.6 122.4 10.5 122.3 10.5C122.3 10.4 122.2 10.4 122.2 10.3C122.2 10.2 122.1 10.2 122.1 10.1C122 10 121.9 9.90003 121.8 9.80003C121.4 9.40003 120.9 9.10003 120.4 8.90003C119.9 8.70003 119.5 8.60003 119 8.60003C118.6 8.60003 118.2 8.60003 117.9 8.70003H117.8H117.7C117.6 8.70003 117.6 8.80003 117.5 8.80003C117.4 8.90003 117.2 8.90003 117.1 9.00003C117 9.10003 116.9 9.10003 116.8 9.20003C116.8 9.20003 116.7 9.20003 116.7 9.30003C116 9.50003 115.5 10.2 115.6 11C115.7 11.9 116.5 12.5 117.3 12.4C118.2 12.3 118.8 11.5 118.7 10.7C118.6 10 118.1 9.50003 117.5 9.30003H117.6C117.7 9.30003 117.7 9.30003 117.8 9.30003H117.9H118C118.3 9.20003 118.6 9.20003 119 9.30003C119.4 9.30003 119.8 9.40003 120.1 9.60003C120.5 9.80003 120.9 10 121.2 10.4C121.3 10.5 121.4 10.6 121.4 10.7L121.5 10.8C121.5 10.9 121.6 10.9 121.6 11C121.6 11 121.6 11.1 121.7 11.1V11.2C121.7 11.3 121.8 11.3 121.8 11.4C121.8 11.5 121.9 11.5 121.9 11.6V11.7V11.8C121.9 11.9 121.9 11.9 122 12C122 12.1 122 12.1 122.1 12.2V12.3V12.4C122.1 12.5 122.1 12.5 122.1 12.6C122.1 12.7 122.1 12.7 122.1 12.8V12.9V13C122.1 13.1 122.1 13.1 122.1 13.2C122.1 13.3 122.1 13.3 122.1 13.4V13.5V13.6C122.1 13.7 122.1 13.7 122.1 13.8C122.1 13.9 122.1 13.9 122.1 14V14.1V14.2C122.1 14.3 122.1 14.3 122 14.4C122 14.5 121.9 14.5 121.9 14.6V14.7V14.8C121.9 14.9 121.8 14.9 121.8 15C121.3 16.1 120.2 17.1 119 17.8C118.9 17.8 118.8 17.9 118.8 17.9C118.7 17.9 118.6 18 118.6 18C118.4 18.1 118.3 18.2 118.1 18.2C117.8 18.3 117.4 18.5 117 18.6C116.3 18.8 115.5 18.9 114.7 18.9C114.3 18.9 113.9 18.9 113.5 18.8C113.1 18.7 112.7 18.7 112.4 18.5H112.3L112.2 18.4C112.1 18.4 112 18.3 111.9 18.3L111.8 18.2C111.8 18.2 111.7 18.2 111.7 18.1C111.6 18.1 111.5 18 111.4 18C111.1 17.8 110.7 17.6 110.4 17.3C110.1 17 109.8 16.7 109.5 16.3C109.2 15.9 109 15.5 108.8 15C108.6 14.5 108.5 14 108.5 13.4C108.5 13.3 108.5 13.1 108.5 13C108.5 12.9 108.5 12.7 108.5 12.6C108.5 12.3 108.6 12 108.6 11.7C108.7 11.4 108.8 11.1 108.9 10.8C109 10.5 109.1 10.2 109.3 9.90003C109.4 9.60003 109.6 9.30003 109.8 9.00003C109.9 8.90003 110 8.70003 110.1 8.60003C110.2 8.50003 110.2 8.50003 110.3 8.40003C110.4 8.30003 110.4 8.30003 110.5 8.20003C110.6 8.10003 110.6 8.10003 110.7 8.00003C110.8 7.90003 110.8 7.90003 110.9 7.80003C111 7.70003 111.2 7.50003 111.3 7.40003C111.4 7.30003 111.4 7.30003 111.5 7.20003C111.6 7.10003 111.6 7.10003 111.7 7.00003C111.8 6.90003 111.8 6.90003 111.9 6.80003C112 6.70003 112 6.70003 112.1 6.60003C112.3 6.50003 112.4 6.40003 112.6 6.20003C112.8 6.10003 112.9 6.00003 113.1 5.90003C113.3 5.80003 113.4 5.70003 113.6 5.60003C113.7 5.50003 113.8 5.50003 113.9 5.40003C114 5.30003 114.1 5.30003 114.2 5.30003C114.3 5.30003 114.4 5.20003 114.5 5.20003C114.6 5.20003 114.7 5.10003 114.8 5.10003C115 5.00003 115.2 4.90003 115.3 4.80003C115.5 4.70003 115.7 4.60003 115.9 4.60003C116 4.60003 116.1 4.50003 116.2 4.50003C116.3 4.50003 116.4 4.40003 116.5 4.40003C117.3 4.10003 118.1 3.90003 118.9 3.80003C119.1 3.80003 119.3 3.70003 119.5 3.70003L119.8 3.60003H120.1C120.3 3.60003 120.5 3.50003 120.7 3.50003C120.9 3.50003 121.1 3.40003 121.4 3.40003C121.6 3.40003 121.8 3.30003 122.1 3.30003C122.3 3.30003 122.5 3.30003 122.8 3.20003C123 3.20003 123.2 3.20003 123.5 3.10003H123.8C123.9 3.10003 124 3.10003 124.1 3.10003C124.3 3.10003 124.5 3.10003 124.8 3.10003C125 3.10003 125.2 3.10003 125.5 3.10003C125.9 3.10003 126.4 3.10003 126.8 3.10003C127 3.10003 127.2 3.10003 127.5 3.10003C127.7 3.10003 127.9 3.10003 128.2 3.10003C128.6 3.10003 129.1 3.20003 129.5 3.20003C130.4 3.30003 131.3 3.40003 132.2 3.60003C133.1 3.70003 134 3.90003 134.8 4.10003C135.7 4.30003 136.5 4.40003 137.4 4.60003C138.3 4.80003 139.1 4.90003 139.9 5.10003C141.6 5.40003 143.2 5.70003 144.8 6.00003C145.6 6.10003 146.4 6.20003 147.1 6.30003C147.9 6.40003 148.6 6.40003 149.3 6.40003C150.7 6.40003 152.1 6.20003 153.3 5.90003C153.9 5.70003 154.4 5.50003 154.9 5.30003C155.4 5.00003 155.8 4.70003 156.2 4.30003C156.4 4.10003 156.5 3.90003 156.6 3.70003C156.7 3.50003 156.7 3.30003 156.8 3.00003C156.8 2.90003 156.8 2.90003 156.8 2.80003C156.8 2.70003 156.8 2.70003 156.8 2.60003C156.8 2.50003 156.8 2.40003 156.8 2.30003C156.8 2.10003 156.7 1.90003 156.6 1.80003C156.5 1.50003 156.3 1.20003 156 1.00003C155.8 0.800027 155.6 0.700027 155.4 0.700027C155.2 0.700027 155.1 0.700027 155 0.800027H154.9C154.9 0.800027 154.9 0.800027 155 0.800027C155.1 0.800027 155.2 0.700027 155.4 0.800027C155.6 0.800027 155.8 0.900027 156 1.10003C156.2 1.30003 156.4 1.50003 156.5 1.80003C156.6 2.00003 156.6 2.10003 156.6 2.30003C156.6 2.40003 156.6 2.50003 156.6 2.60003V2.70003V2.80003C156.6 3.00003 156.5 3.20003 156.4 3.40003C156.3 3.60003 156.2 3.80003 156 4.00003C155.7 4.30003 155.3 4.60003 154.8 4.90003C154.3 5.10003 153.8 5.30003 153.2 5.50003C152 5.80003 150.7 5.90003 149.3 5.90003C148.6 5.90003 147.9 5.80003 147.1 5.80003C146.4 5.70003 145.6 5.60003 144.8 5.50003C143.3 5.20003 141.6 4.90003 140 4.50003C139.2 4.30003 138.3 4.20003 137.5 4.00003C136.6 3.80003 135.8 3.60003 134.9 3.50003C134 3.30003 133.2 3.10003 132.3 3.00003C131.4 2.80003 130.5 2.70003 129.6 2.60003C129.1 2.50003 128.7 2.50003 128.2 2.40003C128 2.40003 127.7 2.40003 127.5 2.30003C127.3 2.30003 127 2.30003 126.8 2.20003C126.3 2.20003 125.9 2.10003 125.4 2.10003C125.2 2.10003 124.9 2.10003 124.7 2.10003C124.5 2.10003 124.2 2.10003 124 2.10003C123.9 2.10003 123.8 2.10003 123.7 2.10003L123 2.00003C122.8 2.00003 122.5 2.00003 122.3 2.00003C122.1 2.00003 121.9 2.00003 121.6 2.10003C121.4 2.10003 121.2 2.10003 120.9 2.20003C120.7 2.20003 120.5 2.30003 120.2 2.30003C120 2.30003 119.8 2.40003 119.5 2.40003H119.2L118.9 2.50003C118.7 2.50003 118.5 2.60003 118.2 2.60003C117.3 2.80003 116.5 3.00003 115.6 3.20003C115.5 3.20003 115.4 3.30003 115.3 3.30003C115.2 3.30003 115.1 3.40003 115 3.40003C114.8 3.50003 114.6 3.60003 114.4 3.60003C114.2 3.70003 114 3.80003 113.8 3.90003C113.7 3.90003 113.6 4.00003 113.5 4.00003C113.4 4.10003 113.3 4.10003 113.2 4.20003C113.1 4.30003 113 4.30003 112.9 4.40003C112.8 4.50003 112.7 4.50003 112.6 4.60003C112.4 4.70003 112.2 4.80003 112.1 4.90003C111.9 5.00003 111.7 5.10003 111.6 5.30003C111.4 5.40003 111.3 5.60003 111.1 5.70003C111 5.80003 110.9 5.80003 110.9 5.90003C110.8 6.00003 110.7 6.00003 110.7 6.10003C110.6 6.20003 110.5 6.20003 110.5 6.30003C110.4 6.40003 110.4 6.40003 110.3 6.50003C110.2 6.60003 110 6.80003 109.9 6.90003C109.8 7.00003 109.8 7.00003 109.7 7.10003C109.6 7.20003 109.6 7.20003 109.5 7.30003C109.4 7.40003 109.4 7.50003 109.3 7.50003C109.2 7.60003 109.2 7.70003 109.1 7.70003C109 7.90003 108.9 8.00003 108.7 8.20003C108.5 8.50003 108.3 8.90003 108.1 9.20003C107.9 9.50003 107.8 9.90003 107.6 10.2C107.5 10.6 107.4 10.9 107.3 11.3C106.9 12.8 107 14.2 107.4 15.4Z" fill="url(#paint4_linear_364_1779)"/>
<path d="M104.3 33.1C104.6 32.4 104.8 32 105 31.6C106 29.1 106 26.7 105.1 24.1C104.6 22.6 104.5 20.9 104.1 19.3C103.8 20.8 103.6 22.3 103.3 23.7C103.2 24.3 103.2 25 102.9 25.5C101.6 27.9 103.1 29.9 103.5 32.1C103.6 32.4 103.9 32.6 104.3 33.1Z" fill="url(#paint5_linear_364_1779)"/>
<path d="M99.9 27.2C102 24.2 103 20.9 102.6 17.2C102.4 19.9 101.7 22.4 99.9 24.6C99.4 25.2 99.6 26.3 99.5 27.2C99.6 27.2 99.8 27.2 99.9 27.2Z" fill="url(#paint6_linear_364_1779)"/>
<path d="M105.8 17.8C105.8 21.3 106.7 24.4 108.7 27.1C108.8 27.1 109 27.1 109.1 27C109 26.1 109.2 25 108.7 24.4C107.2 22.6 106.4 20.5 106.1 18.2C106.1 18.2 105.9 18.1 105.8 17.8Z" fill="url(#paint7_linear_364_1779)"/>
<defs>
<linearGradient id="paint0_linear_364_1779" x1="-3.96359e-07" y1="0.694979" x2="215.231" y2="0.694494" gradientUnits="userSpaceOnUse">
<stop offset="0.37154" stop-color="#E4C396"/>
<stop offset="0.510417" stop-color="#F3E6D4"/>
<stop offset="0.631359" stop-color="#F9E0C2"/>
</linearGradient>
<linearGradient id="paint1_linear_364_1779" x1="55.5996" y1="6.62178" x2="76.4644" y2="6.62178" gradientUnits="userSpaceOnUse">
<stop offset="0.37154" stop-color="#E4C396"/>
<stop offset="0.510417" stop-color="#F3E6D4"/>
<stop offset="0.631359" stop-color="#F9E0C2"/>
</linearGradient>
<linearGradient id="paint2_linear_364_1779" x1="52.2998" y1="12.7833" x2="102.132" y2="12.7833" gradientUnits="userSpaceOnUse">
<stop offset="0.37154" stop-color="#E4C396"/>
<stop offset="0.510417" stop-color="#F3E6D4"/>
<stop offset="0.631359" stop-color="#F9E0C2"/>
</linearGradient>
<linearGradient id="paint3_linear_364_1779" x1="132.4" y1="6.5586" x2="153.265" y2="6.5586" gradientUnits="userSpaceOnUse">
<stop offset="0.37154" stop-color="#E4C396"/>
<stop offset="0.510417" stop-color="#F3E6D4"/>
<stop offset="0.631359" stop-color="#F9E0C2"/>
</linearGradient>
<linearGradient id="paint4_linear_364_1779" x1="107.045" y1="12.9569" x2="157.44" y2="12.9569" gradientUnits="userSpaceOnUse">
<stop offset="0.37154" stop-color="#E4C396"/>
<stop offset="0.510417" stop-color="#F3E6D4"/>
<stop offset="0.631359" stop-color="#F9E0C2"/>
</linearGradient>
<linearGradient id="paint5_linear_364_1779" x1="102.38" y1="28.0188" x2="105.806" y2="28.0188" gradientUnits="userSpaceOnUse">
<stop offset="0.37154" stop-color="#E4C396"/>
<stop offset="0.510417" stop-color="#F3E6D4"/>
<stop offset="0.631359" stop-color="#F9E0C2"/>
</linearGradient>
<linearGradient id="paint6_linear_364_1779" x1="99.5" y1="23.518" x2="102.728" y2="23.518" gradientUnits="userSpaceOnUse">
<stop offset="0.37154" stop-color="#E4C396"/>
<stop offset="0.510417" stop-color="#F3E6D4"/>
<stop offset="0.631359" stop-color="#F9E0C2"/>
</linearGradient>
<linearGradient id="paint7_linear_364_1779" x1="105.8" y1="23.6758" x2="109.142" y2="23.6758" gradientUnits="userSpaceOnUse">
<stop offset="0.37154" stop-color="#E4C396"/>
<stop offset="0.510417" stop-color="#F3E6D4"/>
<stop offset="0.631359" stop-color="#F9E0C2"/>
</linearGradient>
</defs>
</svg>
